<svg width="150" height="174" viewBox="0 0 150 174" fill="none" xmlns="http://www.w3.org/2000/svg">
<path d="M77.5 7.66987L75 6.2265L72.5 7.66987L7.5481 45.1699L5.0481 46.6132V49.5V124.5V127.387L7.5481 128.83L72.5 166.33L75 167.773L77.5 166.33L142.452 128.83L144.952 127.387V124.5V49.5V46.6132L142.452 45.1699L77.5 7.66987Z" fill="#0A192F" stroke="#64FFDA" stroke-width="10"/>
<path d="M50.9531 55.6172C54.8594 55.9427 58.2773 56.138 61.207 56.2031C64.2018 56.2682 66.7409 56.3008 68.8242 56.3008C71.2331 56.3008 73.3164 56.2357 75.0742 56.1055C76.8971 55.9102 79.2734 55.6497 82.2031 55.3242C84.6771 54.9987 87.8672 54.5755 91.7734 54.0547C95.6797 53.4688 100.432 52.7201 106.031 51.8086C105.315 52.9154 104.697 54.0872 104.176 55.3242C103.72 56.4961 103.329 57.5703 103.004 58.5469C102.678 59.7188 102.385 60.8581 102.125 61.9648C101.93 63.2018 101.702 64.7318 101.441 66.5547C101.181 68.1172 100.855 70.1029 100.465 72.5117C100.139 74.8555 99.7161 77.6549 99.1953 80.9102C97.2422 75.832 95.2565 71.9258 93.2383 69.1914C91.2852 66.457 89.4622 64.4388 87.7695 63.1367C85.8164 61.6393 83.9609 60.793 82.2031 60.5977C79.6641 60.5977 77.5807 61.0859 75.9531 62.0625C74.3255 63.0391 72.9909 64.3086 71.9492 65.8711C70.9727 67.3685 70.224 69.0286 69.7031 70.8516C69.1823 72.6094 68.8242 74.3346 68.6289 76.0273C68.4336 77.6549 68.3034 79.1198 68.2383 80.4219C68.1732 81.6589 68.1081 82.5052 68.043 82.9609C70.3216 82.8307 72.2422 82.668 73.8047 82.4727C75.3672 82.2773 76.6042 82.082 77.5156 81.8867C78.6224 81.6263 79.5013 81.3659 80.1523 81.1055C81.1289 80.5846 82.1055 79.9661 83.082 79.25C83.9284 78.599 84.8073 77.8177 85.7188 76.9062C86.6953 75.9948 87.5417 74.888 88.2578 73.5859C87.8672 75.9297 87.5091 77.8828 87.1836 79.4453C86.9232 81.0078 86.6953 82.2448 86.5 83.1562C86.2396 84.263 86.0768 85.1094 86.0117 85.6953C85.8815 86.2812 85.7188 87.0951 85.5234 88.1367C85.3281 89.0482 85.1003 90.2201 84.8398 91.6523C84.5794 93.0846 84.2865 94.875 83.9609 97.0234C83.1797 95.6562 82.3659 94.5495 81.5195 93.7031C80.6732 92.7917 79.8919 92.0755 79.1758 91.5547C78.3294 90.9688 77.5156 90.513 76.7344 90.1875C75.888 89.9271 74.9766 89.6667 74 89.4062C73.1536 89.2109 72.1445 89.0156 70.9727 88.8203C69.8659 88.5599 68.6615 88.332 67.3594 88.1367C67.4896 91.6523 67.6849 94.6797 67.9453 97.2188C68.2057 99.6927 68.4336 101.776 68.6289 103.469C68.8893 105.422 69.1497 107.049 69.4102 108.352C69.7357 109.654 70.2565 111.053 70.9727 112.551C71.5586 113.853 72.3724 115.35 73.4141 117.043C74.5208 118.671 75.9206 120.428 77.6133 122.316C76.3112 121.991 74.944 121.763 73.5117 121.633C72.0794 121.503 70.8099 121.405 69.7031 121.34C68.3359 121.275 67.0339 121.275 65.7969 121.34C64.4948 121.405 63.0625 121.535 61.5 121.73C60.1979 121.861 58.7005 122.056 57.0078 122.316C55.3151 122.577 53.5247 122.87 51.6367 123.195C52.7435 122.089 53.6549 120.982 54.3711 119.875C55.0872 118.768 55.6081 117.792 55.9336 116.945C56.3242 115.969 56.5846 115.025 56.7148 114.113C56.7799 113.332 56.8125 111.639 56.8125 109.035C56.8125 106.366 56.7799 103.273 56.7148 99.7578C56.6497 96.1771 56.5521 92.401 56.4219 88.4297C56.2917 84.4583 56.1615 80.7474 56.0312 77.2969C55.901 73.7812 55.7383 70.7865 55.543 68.3125C55.4128 65.8385 55.25 64.3411 55.0547 63.8203C54.7943 63.1693 54.5013 62.4206 54.1758 61.5742C53.6549 60.207 52.5807 58.2214 50.9531 55.6172Z" fill="#64FFDA"/>
</svg>
